<svg xmlns="http://www.w3.org/2000/svg" viewBox="0 0 236.77 79.33"><defs><style>.cls-1{fill:#231815;}.cls-2{fill:#9ac4e9;}.cls-3{fill:#fff;}</style></defs><g id="レイヤー_2" data-name="レイヤー 2"><g id="レイヤー_1-2" data-name="レイヤー 1"><path class="cls-1" d="M101.22,18.61H96.59c-.65,0-.77.11-.78.61v.55c0,.4.14.46.94.47h2.67c1,0,1.22,0,1.57.23a1.36,1.36,0,0,1,.62,1.35v1.87a1.76,1.76,0,0,1-.82,1.61,4.5,4.5,0,0,1-2,.29H93.92V23.93h4.43c1.15,0,1.27-.06,1.28-.52v-.84c0-.54-.23-.65-1.37-.66H95.75c-1.29,0-1.87-.46-1.88-1.49V18.9c0-1.36.56-1.9,1.9-1.93h5.45Z"/><path class="cls-2" d="M113.22,17h7.6v1.64H118v7h-1.9v-7h-2.85Z"/><path class="cls-1" d="M137.86,17c1.76,0,2.24.32,2.28,1.65v1.61c0,.83-.15,1.08-.82,1.43a1.4,1.4,0,0,1,.79,1.42v2.51h-1.92V24.13c0-1.53-.08-1.66-1-1.7h-2.65v3.16h-1.95V17Zm-.9,3.79c1.06,0,1.17-.09,1.22-.77v-.51c0-.75-.17-.86-1.2-.87h-2.44v2.15Z"/><path class="cls-2" d="M159.63,17v1.64H154v1.64h5v1.66h-5v2h5.63v1.66h-7.51V17Z"/><path class="cls-1" d="M179.07,17v1.64h-5.63v1.64h5v1.66h-5v2h5.63v1.66h-7.51V17Z"/><path class="cls-2" d="M190.69,17h7.59v1.64h-2.85v7h-1.9v-7h-2.84Z"/><path class="cls-2" d="M101.32,37H97.05c-1,0-1.27.25-1.28,1.37v3c0,.83.21,1,1.28,1h4.3V44H96.48c-2,0-2.57-.51-2.61-2.17v-4a2.45,2.45,0,0,1,.66-1.9c.52-.48.93-.6,2.2-.61h4.59Z"/><path class="cls-1" d="M115.08,35.35V40.9c0,1.22.12,1.41,1.09,1.42h1.41c1-.07,1.18-.22,1.16-1.42V35.35h2v6.28c0,1.23-.16,1.63-.73,2a2.67,2.67,0,0,1-1.64.32H115c-1.4-.07-1.86-.7-1.83-2.51V35.35Z"/><path class="cls-2" d="M134.65,35.35v7h5.2V44h-7.14V35.35Z"/><path class="cls-1" d="M151.3,35.35h7.6V37h-2.85v7h-1.9V37H151.3Z"/><path class="cls-2" d="M172.53,35.35V40.9c0,1.22.11,1.41,1.09,1.42H175c1-.07,1.17-.22,1.15-1.42V35.35h2v6.28c0,1.23-.16,1.63-.74,2a2.65,2.65,0,0,1-1.64.32h-3.31c-1.39-.07-1.85-.7-1.82-2.51V35.35Z"/><path class="cls-1" d="M195.43,35.35c1.76,0,2.24.33,2.28,1.66v1.61c0,.83-.15,1.08-.82,1.43a1.4,1.4,0,0,1,.79,1.42V44h-1.92V42.52c0-1.54-.08-1.66-1-1.7h-2.65V44h-2V35.35Zm-.9,3.8c1.06,0,1.18-.09,1.22-.77v-.52c0-.74-.17-.85-1.2-.86h-2.44v2.15Z"/><path class="cls-2" d="M217.2,35.35V37h-5.63v1.64h5.05V40.3h-5.05v2h5.63V44h-7.51V35.35Z"/><path class="cls-1" d="M236.38,37h-4.63c-.65,0-.77.11-.78.61v.55c0,.4.14.46.94.47h2.67c1,0,1.22,0,1.57.23a1.36,1.36,0,0,1,.62,1.35v1.87a1.76,1.76,0,0,1-.82,1.61,4.5,4.5,0,0,1-2,.29h-4.83V42.32h4.43c1.15,0,1.27-.07,1.28-.52V41c0-.54-.23-.65-1.37-.66h-2.51c-1.29,0-1.87-.46-1.88-1.49V37.29c0-1.36.56-1.91,1.9-1.94h5.45Z"/><path class="cls-1" d="M96.38,53.74H99l2.86,8.63h-2l-.66-2h-3.1l-.61,2h-2Zm2.36,5L97.6,55.18,96.53,58.7Z"/><path class="cls-2" d="M120.73,55.39h-4.27c-1,0-1.27.25-1.28,1.37v3c0,.83.21,1,1.28,1h4.29v1.66h-4.86c-2,0-2.57-.51-2.61-2.17v-4a2.45,2.45,0,0,1,.66-1.9c.52-.48.93-.6,2.2-.61h4.59Z"/><path class="cls-1" d="M135,53.74h2.58l2.86,8.63h-2l-.66-2h-3.1l-.61,2h-2Zm2.36,5-1.15-3.52-1.07,3.52Z"/><path class="cls-2" d="M157,53.74a3.09,3.09,0,0,1,2.16.68c.41.41.46.68.48,2.26V60.2a2.31,2.31,0,0,1-.76,1.73,2.39,2.39,0,0,1-1.68.44H152V53.74Zm-.36,7c.88,0,1.17-.25,1.2-1V56.55c0-.86-.24-1.12-1.27-1.16H154v5.32Z"/><path class="cls-1" d="M179.15,53.74v1.65h-5.63V57h5v1.66h-5v2h5.63v1.66h-7.52V53.74Z"/><path class="cls-2" d="M193.85,53.74l1.61,5.62,1.4-5.62h2.94v8.63H198V56.46l-1.54,5.91h-2l-1.59-5.78v5.78h-1.81V53.74Z"/><path class="cls-1" d="M213.38,53.74l1.81,3.75,1.8-3.75h2.09l-3,5.63v3h-1.89v-3l-2.86-5.58Z"/><rect class="cls-1" x="11.62" y="11.62" width="56.09" height="56.09" transform="translate(39.66 -16.43) rotate(45)"/><polygon class="cls-2" points="63.35 48.48 72.16 39.66 54.54 39.66 63.35 48.48"/><polygon class="cls-3" points="7.17 39.66 24.79 39.66 28.77 35.68 35.58 28.88 39.66 24.79 43.75 28.88 54.54 39.66 72.16 39.66 39.66 7.17 7.17 39.66"/><polygon class="cls-2" points="46.36 39.66 32.97 39.66 32.86 39.77 43.68 50.59 39.59 54.68 28.77 43.86 24.69 39.77 24.79 39.66 7.17 39.66 39.66 72.16 59.26 52.56 46.36 39.66"/><path class="cls-1" d="M53.53,77.78c0,1-.37,1.3-1.29,1.33H50c-.94,0-1.3-.37-1.32-1.28V75.22c0-1,.33-1.31,1.38-1.34h3.45V75.2h-2.9c-.4,0-.49.12-.49.55v1.49c0,.45.07.52.47.53h1.11c.28,0,.33,0,.34-.29v-.39H50.94V75.81h2.59Z"/><path class="cls-2" d="M58.9,73.88h1.81l1.74,5.23H60.88L60.57,78H59l-.3,1.13H57.15Zm1.36,2.94-.46-1.67-.45,1.67Z"/><path class="cls-1" d="M66,73.88h4.81v1.34H69.1v3.89H67.6V75.22H66Z"/><path class="cls-1" d="M74.58,73.88h4.74v1.31H76v.67h3v1.22H76v.7h3.3v1.33H74.58Z"/></g></g></svg>