<svg xmlns="http://www.w3.org/2000/svg" viewBox="0 0 79.34 79.33"><defs><style>.cls-1{fill:#231815;}.cls-2{fill:#9ac4e9;}.cls-3{fill:#fff;}</style></defs><g id="レイヤー_2" data-name="レイヤー 2"><g id="レイヤー_1-2" data-name="レイヤー 1"><rect class="cls-1" x="11.62" y="11.62" width="56.09" height="56.09" transform="translate(39.66 -16.43) rotate(45)"/><polygon class="cls-2" points="63.35 48.48 72.16 39.66 54.54 39.66 63.35 48.48"/><polygon class="cls-3" points="7.17 39.66 24.79 39.66 28.77 35.68 35.58 28.88 39.66 24.79 43.75 28.88 54.54 39.66 72.16 39.66 39.66 7.17 7.17 39.66"/><polygon class="cls-2" points="46.36 39.66 32.97 39.66 32.86 39.77 43.68 50.59 39.59 54.68 28.77 43.86 24.69 39.77 24.79 39.66 7.17 39.66 39.66 72.16 59.26 52.56 46.36 39.66"/><path class="cls-1" d="M53.53,77.78c0,1-.37,1.3-1.29,1.33H50c-.94,0-1.3-.37-1.32-1.28V75.22c0-1,.33-1.31,1.38-1.34h3.45V75.2h-2.9c-.4,0-.49.12-.49.55v1.49c0,.45.07.52.47.53h1.11c.28,0,.33,0,.34-.29v-.39H50.94V75.81h2.59Z"/><path class="cls-2" d="M58.9,73.88h1.81l1.74,5.23H60.88L60.57,78H59l-.3,1.13H57.15Zm1.36,2.94-.46-1.67-.45,1.67Z"/><path class="cls-1" d="M66,73.88h4.81v1.34H69.1v3.89H67.6V75.22H66Z"/><path class="cls-1" d="M74.58,73.88h4.74v1.31H76v.67h3v1.22H76v.7h3.3v1.33H74.58Z"/></g></g></svg>